<?xml version="1.0" encoding="UTF-8"?>
<!DOCTYPE svg PUBLIC "-//W3C//DTD SVG 1.1//EN" "http://www.w3.org/Graphics/SVG/1.1/DTD/svg11.dtd">
<!-- Creator: CorelDRAW 2019 (64-Bit) -->
<svg xmlns="http://www.w3.org/2000/svg" xml:space="preserve" width="739.246mm" height="74.9569mm" version="1.1" style="shape-rendering:geometricPrecision; text-rendering:geometricPrecision; image-rendering:optimizeQuality; fill-rule:evenodd; clip-rule:evenodd"
viewBox="0 0 21569.95 2187.11"
 xmlns:xlink="http://www.w3.org/1999/xlink">
 <defs>
  <style type="text/css">
   <![CDATA[
    .str0 {stroke:#2B2A29;stroke-width:5.84;stroke-miterlimit:22.9256}
    .str1 {stroke:#2B2A29;stroke-width:2.22;stroke-miterlimit:22.9256}
    .fil3 {fill:#FEFEFE}
    .fil8 {fill:#FEFEFE}
    .fil4 {fill:#2B2A29}
    .fil1 {fill:#E31E24}
    .fil2 {fill:#2C2119}
    .fil5 {fill:#4F5154}
    .fil0 {fill:#1F1B20}
    .fil12 {fill:#1F1B20}
    .fil16 {fill:#2C2119;fill-rule:nonzero}
    .fil7 {fill:#1F1B20;fill-rule:nonzero}
    .fil10 {fill:url(#id0)}
    .fil14 {fill:url(#id1)}
    .fil9 {fill:url(#id2)}
    .fil13 {fill:url(#id3)}
    .fil6 {fill:url(#id4)}
    .fil11 {fill:url(#id5)}
    .fil17 {fill:url(#id6)}
    .fil15 {fill:url(#id7)}
   ]]>
  </style>
  <linearGradient id="id0" gradientUnits="userSpaceOnUse" x1="3404.21" y1="1201.29" x2="3480.74" y2="772.3">
   <stop offset="0" style="stop-opacity:1; stop-color:#8F908E"/>
   <stop offset="1" style="stop-opacity:1; stop-color:#FEFEFE"/>
  </linearGradient>
  <linearGradient id="id1" gradientUnits="userSpaceOnUse" xlink:href="#id0" x1="5171.24" y1="1203.6" x2="5239" y2="771.59">
  </linearGradient>
  <linearGradient id="id2" gradientUnits="userSpaceOnUse" x1="2837.69" y1="1200.52" x2="2912.11" y2="769.11">
   <stop offset="0" style="stop-opacity:1; stop-color:#8F908E"/>
   <stop offset="1" style="stop-opacity:1; stop-color:#E1E3E3"/>
  </linearGradient>
  <linearGradient id="id3" gradientUnits="userSpaceOnUse" xlink:href="#id0" x1="4571.96" y1="1200.31" x2="4647.85" y2="775.86">
  </linearGradient>
  <linearGradient id="id4" gradientUnits="userSpaceOnUse" x1="1487.86" y1="1245.18" x2="1582.13" y2="729.28">
   <stop offset="0" style="stop-opacity:1; stop-color:#8F908E"/>
   <stop offset="1" style="stop-opacity:1; stop-color:white"/>
  </linearGradient>
  <linearGradient id="id5" gradientUnits="userSpaceOnUse" xlink:href="#id0" x1="3994.6" y1="1200.42" x2="4066.52" y2="774.75">
  </linearGradient>
  <linearGradient id="id6" gradientUnits="userSpaceOnUse" xlink:href="#id4" x1="2206.31" y1="1240.96" x2="2255.46" y2="885.64">
  </linearGradient>
  <linearGradient id="id7" gradientUnits="userSpaceOnUse" xlink:href="#id0" x1="2186.31" y1="1054.32" x2="2217.75" y2="922.45">
  </linearGradient>
 </defs>
 <g id="Capa_x0020_1">
  <metadata id="CorelCorpID_0Corel-Layer"/>
  <rect class="fil0" x="-0" y="-0" width="21569.95" height="1825.91"/>
  <rect class="fil1" x="-0" y="-0" width="21569.95" height="1262.21"/>
  <circle class="fil2 str0" cx="19942.49" cy="1548.06" r="636.14"/>
  <circle class="fil3 str0" cx="19942.49" cy="1548.06" r="550.13"/>
  <circle class="fil4 str0" cx="19942.49" cy="1548.06" r="337.05"/>
  <circle class="fil5 str0" cx="19942.49" cy="1548.06" r="250.59"/>
  <g id="_1901324028496">
   <path class="fil0" d="M1180.41 671.47l0 633.81 337.4 -3.15 1.58 -108.79 167.12 1.58c45.2,-36.79 90.39,-73.58 135.59,-110.37 95.87,259.37 458.05,362.89 692.14,113.52l3.15 105.63 1671.23 -1.58 134.02 -110.36 140.32 111.94 684.26 -4.73 56.76 -56.76 55.18 61.49 438.3 -3.15 -268.03 -307.45 280.64 -321.63 -449.34 -4.73 -53.61 66.22 -58.34 -64.64 -690.57 1.58 -130.86 116.67 -135.59 -116.67 -540.78 3.15 7.88 -156.09 -403.62 63.07 -3.15 93.02 -729.98 -4.73 -1.58 116.67c-190.67,-212.24 -491.11,-196.63 -662.19,29.95l-168.7 -143.47 -509.25 0z"/>
   <polygon class="fil3 str1" points="3313.81,633.37 3597.62,588.18 3593.87,738.41 3311.28,769.25 "/>
   <polygon class="fil6" points="1465.55,1135.67 1463.99,1243.21 1241.19,1248.33 1244.97,729.78 1665.36,726.12 1828.8,859.15 1828.8,996.11 1676.41,1137.07 "/>
   <path class="fil7" d="M1471.74 1141.99l-1.55 107.36 -235.33 5.41c1.31,-177.07 2.6,-354.14 3.88,-531.21 142.94,-1.24 285.89,-2.42 428.84,-3.73 55.83,45.47 111.68,90.92 167.53,136.36l0 142.64c-52.07,48.2 -104.14,96.41 -156.27,144.54l-207.1 -1.38zm-13.94 95.07l1.56 -107.72 214.62 1.43 148.51 -137.37 0 -131.27 -159.35 -129.7 -411.93 3.58 -3.69 505.89 210.28 -4.83z"/>
   <path class="fil7" d="M1278.19 1204.34l3.2 -438.2c123.69,-1.07 247.39,-2.09 371.08,-3.23 46.55,37.91 93.11,75.81 139.68,113.7l0 103.43c-43.32,40.1 -86.64,80.21 -130.01,120.26l-232.73 -1.55 -1.58 108.61 -149.69 3.44 0.05 -6.45zm15.67 -425.74l-3.06 419.34 124.64 -2.87 1.58 -108.97 240.25 1.6 122.26 -113.09 0 -92.06 -131.5 -107.03 -354.17 3.08z"/>
   <polygon class="fil8" points="2803.58,839.21 2914.5,728.29 3236.02,726.99 2967.02,977.93 3242.54,1244.04 2927.12,1246.68 2803.98,1117.77 2802.7,1242.58 2570.62,1242.58 2580.44,727.25 2804.84,727.2 "/>
   <polygon class="fil9" points="2623.03,775.52 2760.2,772.37 2758.62,912.69 2789.37,915.84 2933.24,771.97 3124.01,767.24 2903.28,977.72 3134.26,1200.82 2945.85,1202.39 2794.49,1043.94 2760.59,1044.73 2759.01,1198.45 2615.54,1198.45 "/>
   <path class="fil7" d="M2622.91 769.24l143.64 -3.3 -1.58 141.08 22.04 2.26 143.52 -143.53c69.87,-1.71 139.73,-3.46 209.6,-5.2l-227.77 217.2 237.32 229.22 -206.51 1.73 -151.32 -158.41 -25.04 0.58 -1.58 153.89 -156.09 0c2.6,-145.12 5.17,-290.25 7.71,-435.38l6.05 -0.14zm130.93 9.56l-124.64 2.87 -7.27 410.48 130.86 0 1.58 -153.56 42.75 -0.99 151.4 158.49 170.3 -1.42 -224.64 -216.97 213.69 -203.77 -171.95 4.26 -144.21 144.21 -39.45 -4.04 1.57 -139.56z"/>
   <polygon class="fil3" points="3174.74,846.19 3310.66,728.51 3778.76,725.99 3629.35,929.34 3599.98,929.47 3599.5,1044.54 3626.39,1044.54 3774.57,1244.2 3314.66,1247.23 3148.91,1110.93 3150.38,855.93 "/>
   <polygon class="fil10" points="3197.71,883.92 3326.99,771.97 3692.37,770 3607.23,885.89 3353.4,887.07 3353.4,939.1 3556.39,939.1 3555.99,1034.09 3353.79,1036.06 3353.79,1088.09 3604.48,1088.09 3688.43,1201.21 3330.14,1203.58 3192.58,1090.46 3193.76,885.49 "/>
   <path class="fil7" d="M3194.39 878.47l130.23 -112.76c126.74,-0.64 253.48,-1.35 380.22,-2.05l-94.41 128.5 -250.73 1.17 0 39.47 202.99 0 -0.45 107.52 -202.15 1.97 0 39.5 247.53 0 93.24 125.63 -372.96 2.46 -141.63 -116.47c0.42,-70.73 0.83,-141.46 1.23,-212.19l6.89 -2.75zm134.96 -100.22l-128.34 111.12 -1 0.4 -1.14 197.74 133.5 109.78 343.62 -2.27 -74.67 -100.62 -253.85 0 0 -64.56 202.26 -1.97 0.34 -82.46 -202.99 0 0 -64.59 256.94 -1.2 75.87 -103.27 -350.54 1.89z"/>
   <polygon class="fil3" points="3723.71,729.89 4174.16,727.14 4335.67,863.65 4337.57,1111.32 4174.99,1247.92 3723.71,1247.92 "/>
   <polygon class="fil11" points="3769.62,775.52 4157.48,773.16 4289.91,885.1 4291.49,1090.06 4158.26,1202 3769.62,1202 "/>
   <path class="fil7" d="M3769.6 769.24l390.18 -2.38 136.39 115.29c0.57,70.27 1.09,140.54 1.62,210.82 -45.75,38.46 -91.52,76.9 -137.28,115.35l-397.2 0 0 -439.03 6.28 -0.04zm385.58 10.21l-379.24 2.31 0 413.93 380.08 0 129.17 -108.54 -1.53 -199.11 -128.48 -108.6z"/>
   <rect class="fil3" x="3906.79" y="884.31" width="245.95" height="205.75"/>
   <path class="fil7" d="M3906.79 878l252.26 0 0 218.37 -258.57 0 0 -218.37 6.31 0zm239.65 12.61l-233.34 0 0 193.14 233.34 0 0 -193.14z"/>
   <rect class="fil12" x="3955.66" y="933.19" width="152.93" height="111.94"/>
   <path class="fil7" d="M3955.67 926.88l159.24 0 0 124.56 -165.55 0 0 -124.56 6.31 0zm146.63 12.61l-140.32 0 0 99.33 140.32 0 0 -99.33z"/>
   <path class="fil7" d="M3716.02 820.94l-80.28 116.19 -31.66 0 0 102.65 30.94 0.72 81 116.92 0 -336.48zm-86.84 103.57l99.46 -143.95 0 417.15 -100.31 -144.8 -36.86 -0.86 0 -127.54 37.71 0z"/>
   <polygon class="fil3" points="4949.62,727.19 4801.17,935.53 4770.57,935.58 4770.99,1039.99 4799.06,1040.17 4946.93,1247.03 4481.36,1250.64 4315.26,1113.6 4315.76,861.38 4476,726.67 "/>
   <polygon class="fil13" points="4363.61,883.73 4493.49,774.55 4842.52,774.15 4856.6,773.56 4776.29,887.68 4522.45,888.07 4521.66,937.73 4722.68,938.52 4723.07,1035.88 4521.66,1036.67 4522.45,1086.33 4774.32,1087.91 4854.33,1199.85 4498.4,1202.61 4363.21,1091.06 "/>
   <path class="fil7" d="M4359.57 878.92l131.63 -110.66 351.07 -0.4 26.82 -1.12c-29.84,42.4 -59.67,84.81 -89.53,127.2l-250.93 0.39 -0.59 37.14 200.9 0.78 0.44 109.87 -201.34 0.79 0.59 37.16 248.94 1.56 88.92 124.39c-123.44,0.97 -246.88,1.98 -370.32,2.87 -46.42,-38.29 -92.84,-76.58 -139.25,-114.89 0.14,-71.07 0.31,-142.14 0.41,-213.22l2.24 -1.88zm136.2 -98.1l-125.88 105.83 -0.39 201.45 131.15 108.2 341.53 -2.65 -71.12 -99.49 -254.8 -1.6 -0.99 -62.16 201.49 -0.79 -0.34 -84.84 -201.15 -0.79 0.99 -62.19 256.75 -0.4 71.1 -101.03c-112.19,4.72 -234.96,0.32 -348.34,0.45z"/>
   <path class="fil7" d="M4769.33 925.54l29.74 0.71 90.08 -129.04 170.3 187.79c-56.59,63.7 -113.2,127.37 -169.81,191.04l-90.59 -127.55 -36.99 0 0.88 -123.11 6.38 0.15zm32.82 13.35l-26.73 -0.64 -0.7 97.62 30.8 0 85.21 119.98 151.82 -170.8 -152.12 -167.74 -84.93 121.65 -3.36 -0.08z"/>
   <polygon class="fil3" points="4834.75,987.58 4895.28,1072.81 4972.96,985.42 4895.72,900.25 "/>
   <path class="fil7" d="M4842.44 987.54l53.38 75.17 68.68 -77.26 -68.15 -75.14 -53.92 77.23zm47.72 88.91l-63.09 -88.83 68.01 -97.42 86.33 95.19 -86.67 97.51 -4.58 -6.45z"/>
   <polygon class="fil3" points="5204.61,817.13 5286.93,726.51 5587.23,727.81 5356.6,987.87 5578.27,1242.55 5285.75,1249.03 5204.49,1160.14 5127.69,1247.02 4826.4,1247.02 5050.69,988.51 4822.42,727.05 5122.35,727.22 "/>
   <polygon class="fil14" points="5103.03,771.6 5204.72,882.75 5306.42,770.81 5489.31,771.6 5297.75,987.59 5483,1200.44 5304.84,1204.38 5203.93,1094.02 5107.76,1202.81 4923.29,1202.81 5109.34,988.39 4920.93,773.17 "/>
   <path class="fil7" d="M5107.66 767.36l97.03 106.06 98.93 -108.91c66.53,0.32 133.06,0.58 199.6,0.86l-197.1 222.25 190.44 218.81c-64.81,1.44 -129.62,2.9 -194.43,4.3l-98.12 -107.31 -93.45 105.7 -201.08 0 191.5 -220.71 -193.82 -221.39c66.2,-0.57 132.39,-1.12 198.59,-1.72l1.89 2.07zm92.43 119.63l-99.8 -109.08 -165.61 1.44 182.99 209.03 -180.58 208.13 167.86 0 98.9 -111.88 103.69 113.41 161.89 -3.58 -180.07 -206.89 186.02 -209.75 -166.18 -0.72 -104.45 114.98 -4.66 -5.09z"/>
   <ellipse class="fil3" cx="2202.03" cy="988.39" rx="337.02" ry="296.82"/>
   <path class="fil7" d="M2202.03 685.26c94.65,0 180.38,33.83 242.47,88.51 62.31,54.88 100.85,130.75 100.85,214.62 0,83.86 -38.54,159.73 -100.85,214.61 -62.09,54.69 -147.83,88.51 -242.47,88.51 -94.65,0 -180.38,-33.83 -242.47,-88.51 -62.31,-54.88 -100.86,-130.75 -100.86,-214.61 0,-83.86 38.54,-159.74 100.86,-214.62 62.09,-54.69 147.83,-88.51 242.47,-88.51zm234.15 97.97c-59.88,-52.74 -142.66,-85.36 -234.15,-85.36 -91.49,0 -174.27,32.62 -234.15,85.36 -59.66,52.55 -96.57,125.08 -96.57,205.16 0,80.07 36.9,152.61 96.57,205.15 59.88,52.74 142.66,85.36 234.15,85.36 91.48,0 174.27,-32.62 234.15,-85.36 59.66,-52.55 96.57,-125.08 96.57,-205.15 0,-80.07 -36.9,-152.61 -96.57,-205.16z"/>
   <ellipse class="fil15" cx="2202.03" cy="988.39" rx="78.04" ry="67.32"/>
   <path class="fil7" d="M2202.03 914.76c23.09,0 44.07,8.13 59.3,21.27 15.48,13.35 25.05,31.86 25.05,52.36 0,20.49 -9.57,39.01 -25.05,52.35 -15.23,13.14 -36.2,21.27 -59.3,21.27 -23.09,0 -44.07,-8.13 -59.3,-21.27 -15.48,-13.35 -25.05,-31.86 -25.05,-52.35 0,-20.5 9.57,-39.01 25.05,-52.36 15.23,-13.14 36.2,-21.27 59.3,-21.27zm51.07 30.78c-13.01,-11.22 -31.07,-18.16 -51.07,-18.16 -20.01,0 -38.06,6.94 -51.07,18.16 -12.77,11.01 -20.67,26.16 -20.67,42.85 0,16.68 7.9,31.83 20.67,42.84 13.01,11.22 31.06,18.17 51.07,18.17 20,0 38.06,-6.94 51.07,-18.17 12.77,-11.01 20.66,-26.16 20.66,-42.84 0,-16.68 -7.9,-31.83 -20.66,-42.85z"/>
   <path class="fil7" d="M3354.15 663.11l206.7 -32.92 -1.9 76.12 -211.22 23.05 1.22 -65.42 5.2 -0.83zm193.76 -18.13l-186.59 29.71 -0.76 40.6 186.1 -20.31 1.25 -50.01z"/>
   <path class="fil16" d="M1417.66 868.56l238.07 0 0 126.92 -244.38 0 0 -126.92 6.31 0zm225.46 12.62l-219.15 0 0 101.69 219.15 0 0 -101.69z"/>
   <rect class="fil12" x="1466.53" y="923.74" width="131.65" height="20.5"/>
   <path class="fil7" d="M1466.53 917.44l137.96 0 0 33.11 -144.26 0 0 -33.11 6.31 0zm125.34 12.61l-119.03 0 0 7.88 119.03 0 0 -7.88z"/>
   <path class="fil1" d="M2202.03 736.12c-161.53,0 -292.47,112.94 -292.47,252.26 0,34.26 7.92,66.93 22.27,96.71 37.5,-19.11 80.83,-40.77 126.3,-63.28 -3.32,-10.66 -5.09,-21.87 -5.09,-33.44 0,-70.98 66.71,-128.51 148.99,-128.51 42.08,0 80.08,15.05 107.17,39.24 53.23,-25.76 98.44,-47.52 127.39,-61.43 -53.32,-61.64 -138.54,-101.56 -234.57,-101.56z"/>
   <path class="fil7" d="M2202.03 742.43c-79.22,0 -150.88,27.64 -202.69,72.33 -51.57,44.48 -83.47,105.87 -83.47,173.62 0,16.47 1.87,32.52 5.43,48 3.18,13.83 7.72,27.25 13.48,40.14 14.94,-7.59 32.52,-16.45 52.24,-26.32 21.73,-10.89 42.98,-21.47 63.61,-31.69 -1.07,-4.04 -1.92,-8.15 -2.55,-12.29 -0.89,-5.85 -1.35,-11.81 -1.35,-17.83 0,-37.4 17.52,-71.2 45.83,-95.63 28.07,-24.21 66.78,-39.19 109.47,-39.19 21.37,0 41.77,3.76 60.33,10.56 17.87,6.54 34.07,15.94 47.82,27.52 25.19,-12.19 48.52,-23.45 69.09,-33.36l47.07 -22.64c-25.77,-27.92 -58.43,-50.92 -95.76,-67.08 -38.61,-16.72 -82.28,-26.13 -128.55,-26.13zm-210.92 62.82c54.04,-46.61 128.62,-75.44 210.92,-75.44 47.95,0 93.31,9.8 133.52,27.21 41.82,18.11 78.03,44.44 105.8,76.54l5.37 6.21 -61.99 29.83c-21.57,10.4 -46.19,22.28 -72.8,35.16l-3.78 1.83 -3.15 -2.81c-13.19,-11.78 -29.15,-21.31 -46.99,-27.84 -17.17,-6.29 -36.1,-9.77 -56,-9.77 -39.6,0 -75.39,13.79 -101.24,36.09 -25.61,22.09 -41.44,52.54 -41.44,86.12 0,5.43 0.41,10.76 1.2,15.96 0.81,5.34 2.02,10.55 3.59,15.6l1.6 5.13 -4.82 2.39c-24.92,12.33 -47.95,23.79 -68.27,33.97 -18.5,9.27 -37.84,19.04 -57.95,29.29l-5.73 2.92 -2.79 -5.8c-7.47,-15.51 -13.25,-31.78 -17.13,-48.64 -3.79,-16.47 -5.78,-33.46 -5.78,-50.81 0,-71.57 33.58,-136.32 87.86,-183.13z"/>
   <path class="fil17" d="M2351.02 988.39c0,70.97 -66.71,128.51 -148.99,128.51 -43.21,0 -82.13,-15.87 -109.34,-41.22l-125.42 63.17c53.31,61.78 138.62,101.79 234.77,101.79 161.52,0 292.47,-112.94 292.47,-252.26 0,-36.47 -8.97,-71.13 -25.12,-102.44l-125.44 63.18c4.6,12.37 7.08,25.57 7.08,39.26z"/>
   <path class="fil7" d="M2357.33 988.39c0,37.39 -17.51,71.2 -45.83,95.63 -28.08,24.21 -66.78,39.19 -109.47,39.19 -21.94,0 -42.86,-3.97 -61.83,-11.12 -18.27,-6.89 -34.73,-16.74 -48.54,-28.85l-114.26 57.55c25.79,28.04 58.51,51.13 95.93,67.36 38.65,16.76 82.36,26.2 128.69,26.2 79.22,0 150.88,-27.64 202.69,-72.33 51.57,-44.48 83.47,-105.87 83.47,-173.62 0,-17.54 -2.12,-34.59 -6.13,-50.98 -3.64,-14.85 -8.86,-29.23 -15.49,-42.99l-114.89 57.87c1.57,4.92 2.83,9.96 3.76,15.09 1.25,6.94 1.9,13.96 1.9,21.02zm-54.06 86.12c25.61,-22.09 41.44,-52.54 41.44,-86.12 0,-6.49 -0.57,-12.77 -1.65,-18.8 -1.13,-6.25 -2.81,-12.35 -5,-18.26l-1.96 -5.28 136.02 -68.51 2.86 5.54c8.4,16.28 14.92,33.48 19.3,51.38 4.28,17.45 6.53,35.5 6.53,53.94 0,71.57 -33.57,136.31 -87.85,183.13 -54.04,46.61 -128.62,75.44 -210.92,75.44 -48.01,0 -93.42,-9.83 -133.67,-27.28 -41.85,-18.15 -78.09,-44.54 -105.85,-76.71l-5.27 -6.11 136.53 -68.77 3.2 2.98c13.27,12.36 29.48,22.38 47.67,29.24 17.53,6.61 36.95,10.28 57.39,10.28 39.6,0 75.39,-13.79 101.24,-36.08z"/>
   <path class="fil3 str0" d="M1643.11 982.87l0 -101.69 -219.15 0 0 101.69 219.15 0zm-176.58 -65.43l137.96 0 0 33.11 -144.26 0 0 -33.11 6.31 0z"/>
  </g>
 </g>
</svg>
